<svg width="50" height="50" viewBox="0 0 50 50" fill="none" xmlns="http://www.w3.org/2000/svg">
<path fill-rule="evenodd" clip-rule="evenodd" d="M33.8811 20.6001C33.9102 20.7129 33.9248 20.8962 33.9248 21.1501C33.9248 23.1808 33.4144 25.1411 32.3936 27.0308C31.3436 29.0334 29.8706 30.627 27.9748 31.8116C25.904 33.1373 23.5269 33.8001 20.8436 33.8001C18.2769 33.8001 15.929 33.1373 13.7998 31.8116C14.1206 31.8398 14.4852 31.8539 14.8936 31.8539C17.0227 31.8539 18.9331 31.2193 20.6248 29.9501C19.604 29.9501 18.7071 29.661 17.9342 29.0828C17.1613 28.5046 16.629 27.7783 16.3373 26.9039C16.629 26.9321 16.9061 26.9462 17.1686 26.9462C17.5769 26.9462 17.9852 26.9039 18.3936 26.8193C17.3436 26.5937 16.4686 26.0719 15.7686 25.2539C15.0686 24.436 14.7186 23.5052 14.7186 22.4616V22.377C15.3602 22.7437 16.0456 22.9411 16.7748 22.9693C16.1623 22.5462 15.6665 22.0103 15.2873 21.3616C14.9081 20.7129 14.7186 20.0007 14.7186 19.2251C14.7186 18.4494 14.9373 17.709 15.3748 17.0039C16.5123 18.386 17.905 19.486 19.5529 20.3039C21.2008 21.1219 22.9581 21.5732 24.8248 21.6578C24.7665 21.3193 24.7373 20.9808 24.7373 20.6424C24.7373 19.8526 24.9415 19.1123 25.3498 18.4212C25.7581 17.7302 26.3123 17.1873 27.0123 16.7924C27.7123 16.3975 28.4706 16.2001 29.2873 16.2001C29.9581 16.2001 30.5779 16.327 31.1467 16.5808C31.7154 16.8347 32.2186 17.1732 32.6561 17.5962C33.7061 17.3988 34.6831 17.0462 35.5873 16.5385C35.2373 17.5821 34.5665 18.4001 33.5748 18.9924C34.4498 18.8796 35.3248 18.6398 36.1998 18.2732C35.5581 19.1757 34.7852 19.9514 33.8811 20.6001Z" fill="#BDBDBD"/>
<rect x="0.5" y="0.5" width="49" height="49" rx="7.5" stroke="#4F4F4F"/>
</svg>
