<svg width="50" height="50" viewBox="0 0 50 50" fill="none" xmlns="http://www.w3.org/2000/svg">
<path d="M22.7598 28.4287V21.5716L28.5793 25.0001L22.7598 28.4287ZM35.7316 19.4987C35.474 18.5153 34.7152 17.7407 33.7512 17.4778C32.0045 17.0001 24.9998 17.0001 24.9998 17.0001C24.9998 17.0001 17.9951 17.0001 16.2481 17.4778C15.2844 17.7407 14.5253 18.5153 14.268 19.4987C13.7998 21.281 13.7998 25.0001 13.7998 25.0001C13.7998 25.0001 13.7998 28.7192 14.268 30.5016C14.5253 31.4852 15.2844 32.2595 16.2481 32.5224C17.9951 33.0001 24.9998 33.0001 24.9998 33.0001C24.9998 33.0001 32.0045 33.0001 33.7512 32.5224C34.7152 32.2595 35.474 31.4852 35.7316 30.5016C36.1998 28.7192 36.1998 25.0001 36.1998 25.0001C36.1998 25.0001 36.1998 21.281 35.7316 19.4987Z" fill="#BDBDBD"/>
<rect x="0.5" y="0.5" width="49" height="49" rx="7.5" stroke="#4F4F4F"/>
</svg>
